<?xml version="1.0" encoding="UTF-8"?>
<svg width="34px" height="34px" viewBox="0 0 34 34" version="1.1" xmlns="http://www.w3.org/2000/svg" xmlns:xlink="http://www.w3.org/1999/xlink">
    <title>arrow-left</title>
    <g id="Oct-2020-Updates" stroke="none" stroke-width="1" fill="none" fill-rule="evenodd">
        <g id="Desktop-HD-–-Project-Page" transform="translate(-100.000000, -165.000000)" fill="#000000" fill-rule="nonzero">
            <g id="arrow-left" transform="translate(100.000000, 165.000000)">
                <path d="M17.5719286,33.6611384 L18.108567,33.1245759 C18.4642009,32.768942 18.4642009,32.192308 18.108567,31.8365982 L4.56214732,18.2901786 L33.0892857,18.2901786 C33.5922277,18.2901786 34,17.8824062 34,17.3794643 L34,16.6205357 C34,16.1175937 33.5922277,15.7098214 33.0892857,15.7098214 L4.56214732,15.7098214 L18.108567,2.16340179 C18.4642009,1.80776786 18.4642009,1.23113393 18.108567,0.875424107 L17.5719286,0.338861607 C17.2162946,-0.0167723214 16.6396607,-0.0167723214 16.2840268,0.338861607 L0.266763393,16.3560491 C-0.0888705357,16.711683 -0.0888705357,17.288317 0.266763393,17.6440268 L16.2840268,33.6612143 C16.6396607,34.0168482 17.2162946,34.0168482 17.5719286,33.6611384 Z" id="Path"></path>
            </g>
        </g>
    </g>
</svg>