<?xml version="1.0" encoding="UTF-8"?>
<svg width="141px" height="75px" viewBox="0 0 141 75" version="1.1" xmlns="http://www.w3.org/2000/svg" xmlns:xlink="http://www.w3.org/1999/xlink">
    <title>Logo</title>
    <defs>
        <polygon id="path-1" points="0.0179394995 0.000138888889 39.3465015 0.000138888889 39.3465015 75 0.0179394995 75"></polygon>
        <polygon id="path-3" points="0 0.109826389 30.6961515 0.109826389 30.6961515 73.5160764 0 73.5160764"></polygon>
    </defs>
    <g id="Symbols" stroke="none" stroke-width="1" fill="none" fill-rule="evenodd">
        <g id="Menu" transform="translate(-99.000000, -30.000000)">
            <g id="Group-21" transform="translate(99.000000, 30.000000)">
                <g id="Group-3" transform="translate(33.687192, 0.000000)">
                    <mask id="mask-2" fill="white">
                        <use xlink:href="#path-1"></use>
                    </mask>
                    <g id="Clip-2"></g>
                    <path d="M28.797201,7.97930556 L28.797201,15.576875 L28.797201,23.2365972 C28.797201,25.7963194 24.2424842,28.6678472 16.1936764,31.8279167 C8.14486847,34.9876389 9.79067882,37.1900694 9.79067882,38.1636806 L9.79067882,42.7633333 L9.79067882,48.6904167 L9.79067882,59.439375 L9.79067882,67.0365972 C10.1720039,67.058125 10.4765778,67.0754861 10.8731837,67.0977083 L10.8731837,59.4845139 L10.8731837,48.7365972 L10.8731837,42.7692361 L10.8731837,38.1629861 C10.8731837,37.1879861 9.24925271,34.9744444 17.3293167,31.8074306 C25.4086862,28.6397222 29.8797059,25.7695833 29.8797059,23.2039583 L29.8797059,15.5293056 L29.8797059,7.91576389 C29.4817108,7.93902778 29.1771369,7.95708333 28.797201,7.97930556 L28.797201,7.97930556 Z M30.6562478,0.000138888889 C30.8934473,0.0574305556 31.1271739,0.140763889 31.3685409,0.168194444 C33.8995951,0.452916667 35.7853833,1.18173611 37.0880704,2.41645833 C38.3911049,3.65118056 39.1113857,5.39145833 39.3117724,7.69875 C39.3388611,8.01020833 39.344765,8.32340278 39.344765,8.63590278 C39.344765,11.1084722 39.3451123,13.5810417 39.3458069,16.0532639 C39.3465015,18.5261806 39.3465015,21.0435417 39.3465015,23.5431944 C39.3471961,26.0431944 34.0666419,28.9150694 26.3192823,31.995625 C18.57227,35.0761806 20.3410212,37.1990972 20.3406739,38.1511806 C20.3403266,39.1032639 20.339632,41.6959722 20.3385901,42.6855556 C20.3375483,43.6747917 20.3361591,44.4147222 20.3340754,48.1272222 C20.3323389,51.8397222 20.3299079,56.4254861 20.3267823,58.8980556 C20.3240039,61.370625 20.3201837,63.8431944 20.3160163,66.3154167 C20.3139325,67.5032639 20.0819424,68.7213194 19.7360409,69.8713194 C19.0018685,72.3102083 17.1688685,73.8452778 14.4756296,74.501875 C12.0004892,75.1056944 9.48506305,75.1577778 6.98144483,74.67375 C4.85602611,74.2626389 3.2831468,73.4539583 2.19855813,72.1810417 C1.11396946,70.9077778 0.517324138,69.1702778 0.343678818,66.9008333 C0.303045813,66.3671528 0.313811823,65.83 0.313464532,65.2942361 C0.313464532,62.9109028 0.313117241,60.5275694 0.313117241,58.1442361 C0.312769951,55.76125 0.31242266,50.7803472 0.31242266,47.4192361 C0.31242266,44.058125 0.31242266,43.595625 0.312075369,42.5963194 C0.312075369,41.5970139 0.312075369,39.0883333 0.31242266,38.170625 C0.31242266,37.2525694 -1.80535567,35.3320833 5.31757537,32.3897222 C12.4401591,29.4480556 19.3210286,26.5390278 19.3217232,24.1348611 C19.322765,21.7310417 19.3238069,19.2904167 19.3251961,16.9070833 C19.3265852,14.5240972 19.3283217,12.1407639 19.3304054,9.75743056 C19.3311,8.64597222 19.4259103,7.52618056 19.5971246,6.42548611 C19.8687059,4.68069444 20.6358709,3.26159722 21.8364547,2.21159722 C23.0373857,1.16159722 24.6717355,0.481041667 26.6773389,0.213680556 C27.1138833,0.155347222 27.5466074,0.0720138889 27.981068,0.000138888889 L30.6562478,0.000138888889 Z" id="Fill-1" fill="#000000" mask="url(#mask-2)"></path>
                </g>
                <g id="Group-6" transform="translate(0.000000, 0.694444)">
                    <mask id="mask-4" fill="white">
                        <use xlink:href="#path-3"></use>
                    </mask>
                    <g id="Clip-5"></g>
                    <path d="M19.1685333,0.109826389 L24.8807697,0.109826389 L30.6961515,0.109826389 L30.6961515,6.93586806 C30.0699865,7.03864583 29.4149963,7.14628472 28.6443584,7.27302083 L28.6443584,12.5959375 L28.6443584,17.9271875 L28.6443584,23.3261458 C28.6443584,25.1205903 26.7748929,27.0389931 20.8987352,29.2830903 C15.0222303,31.5271875 9.6381835,33.9660764 9.6381835,35.4803125 C10.3032451,35.5553125 10.9200333,35.6230208 11.6805998,35.7021875 L11.6805998,45.4622569 C11.0294298,45.5306597 10.4126416,45.5976736 9.65763177,45.6837847 L9.65763177,43.1337847 L9.65763177,51.0403819 L9.65763177,59.6789236 L9.65763177,66.3619097 C10.3702722,66.4716319 10.9874076,66.5664236 11.7090776,66.6775347 L11.7090776,73.5160764 L5.91592241,73.5160764 L0.162011084,73.5160764 L0.162011084,66.0094792 L0.162011084,58.5025347 L0.162011084,47.7514931 L0.162011084,42.0386458 L0.162011084,37.4688542 C0.162011084,36.5053125 -1.5751367,34.3511458 6.32121059,31.2296181 C22.5605209,24.8091319 19.1685333,28.5303125 19.1685333,22.7004514 L19.1685333,15.1233681 L19.1685333,7.61677083 L19.1685333,0.109826389 Z" id="Fill-4" fill="#000000" mask="url(#mask-4)"></path>
                </g>
                <path d="M65.5911857,36.3377431 C65.7054443,36.2589236 65.8193557,36.1773264 65.9336143,36.0919097 C65.9336143,34.5498958 71.5482621,32.1391319 77.3692005,29.9103125 C83.1901389,27.6818403 84.9397892,25.7804514 84.9397892,23.9908681 L84.9397892,18.6012847 L84.9397892,13.2679514 L84.9397892,7.93565972 C83.4231709,7.75684028 83.8176931,8.73079861 83.8159567,9.31413194 C83.8100527,11.3123958 83.8058852,13.3106597 83.8031069,15.3089236 C83.8006759,17.3068403 83.7992867,19.3179514 83.7989394,21.3460764 C83.7982448,23.3742014 86.0903631,25.2051042 81.7332547,27.5453819 C77.3764936,29.8853125 67.4620404,32.6613542 65.2411167,34.8342708 C64.9434887,35.1252431 64.7090675,35.4498958 64.8320084,35.6617014 C65.0007916,35.9523264 65.3307177,36.1394792 65.5911857,36.3377431 L65.5911857,36.3377431 Z M74.5530207,0.718298611 C76.448533,0.718298611 78.2186734,0.717604167 79.9888138,0.718298611 C82.0187276,0.718993056 84.049336,0.6884375 86.0785552,0.729756944 C88.5335527,0.779756944 90.586735,1.48774306 92.0363261,2.73774306 C93.4859172,3.98774306 94.3319172,5.77975694 94.372203,7.99711806 C94.4079739,9.95059028 94.4340207,11.9044097 94.4510379,13.8582292 C94.4680552,15.8123958 94.4756956,17.7613542 94.4743064,19.7405208 C94.47257,21.7196875 94.5500158,23.7068403 94.4402719,25.6679514 C94.3308754,27.6287153 85.2738828,30.2905208 79.6557621,32.6818403 C75.0499936,34.6419097 74.9808828,36.2339236 74.0911241,36.9714236 C73.2010182,37.7085764 71.7538581,37.9835764 69.4923015,38.1540625 C72.1237227,38.4130903 73.6038754,38.7294097 74.4276488,39.8769792 C75.2510749,41.0248958 75.4177744,42.4377431 75.4226365,43.1026736 C75.4281931,43.9117014 75.431666,45.3627431 75.4334025,48.9669097 C75.4351389,52.5714236 75.4354862,56.5801042 75.4347916,58.8578819 C75.434097,61.1360069 75.4327079,63.4137847 75.4309714,65.6915625 C75.4295823,67.9696875 75.4274985,70.2474653 75.4261094,72.5255903 C75.4257621,73.0485069 75.3688064,73.5710764 75.3326882,74.1919097 L70.727267,74.1919097 L66.0711414,74.1919097 L66.0711414,67.4162153 L66.0711414,60.6519792 L66.0711414,52.0651736 L66.0711414,43.8804514 L66.0711414,40.1547569 L64.807698,40.1547569 L64.807698,43.8783681 L64.807698,52.0432986 L64.807698,60.6307986 L64.807698,67.3901736 L64.807698,74.1693403 L60.1734517,74.1693403 L55.5464985,74.1693403 L55.5464985,66.6707292 L55.5464985,59.1728125 L55.5464985,48.4203819 L55.5464985,42.7287153 L55.5464985,38.1603125 C55.5464985,37.1967708 53.8274099,35.0356597 61.7376488,31.9113542 C69.6478877,28.7870486 74.5530207,25.9120486 74.5530207,23.3773264 L74.5530207,15.7856597 L74.5530207,8.25649306 L74.5530207,0.718298611 Z" id="Fill-7" fill="#000000"></path>
                <path d="M22.3801382,40.1561806 L22.3801382,43.8360417 L22.3801382,51.7346528 L22.3801382,60.3534028 L22.3801382,67.0263194 C22.747919,67.0547917 23.0524929,67.0780556 23.4556973,67.1093056 L23.4556973,60.4054861 L23.4556973,51.7777083 L23.4556973,43.8391667 L23.4556973,40.1561806 L22.3801382,40.1561806 Z M41.3849239,7.98430556 L41.3849239,13.3245833 L41.3849239,18.6589583 L41.3849239,24.0502778 C41.3849239,25.8405556 39.4519042,27.7593056 33.5892909,29.9964583 C27.7266776,32.2339583 22.378749,34.6617361 22.378749,36.1714583 C22.7625052,36.1867361 23.0670791,36.1985417 23.4570865,36.2138194 C23.4570865,34.7190278 28.6865889,32.2766667 34.5846259,30.0284028 C40.4823155,27.7797917 42.4636086,25.8499306 42.4636086,24.0513194 L42.4636086,18.635 L42.4636086,13.275625 L42.4636086,7.91034722 C42.0628352,7.93777778 41.7582613,7.95861111 41.3849239,7.98430556 L41.3849239,7.98430556 Z M27.4561382,38.156875 C31.7823377,38.6075694 32.8506037,41.4603472 32.8919313,42.781875 C32.9211037,43.7270139 32.9395101,44.6895139 32.9488869,48.4947222 C32.9579165,52.2995833 32.9579165,56.663125 32.9499288,59.1339583 C32.9419411,61.6044444 32.9259658,64.075625 32.9037392,66.5457639 C32.8815126,68.9773611 32.0549608,70.9047917 30.5605692,72.22875 C29.0665249,73.5530556 26.9046406,74.2735417 24.2127909,74.29125 C22.384653,74.3028229 20.556515,74.3040972 18.7064978,74.3020139 C16.8564805,74.3002778 14.9852786,74.2954167 13.0710126,74.2954167 L13.0710126,66.7735417 L13.0710126,59.2582639 L13.0710126,48.5332639 L13.0710126,42.7547917 L13.0710126,38.185 C13.0710126,37.2214583 11.209882,35.1124306 19.0496209,31.9954167 C26.8890126,28.87875 32.0775347,25.9843056 32.0775347,23.4534028 L32.0775347,15.8731944 L32.0775347,8.36069444 L32.0775347,0.842986111 C32.5408204,0.799236111 32.9669461,0.725277778 33.393419,0.724236111 C35.0513845,0.719722222 36.7096973,0.711736111 38.3680101,0.709305556 C40.0263229,0.706527778 41.6842884,0.709305556 43.3426012,0.726319444 C45.9511012,0.752708333 48.0775618,1.47493056 49.5584091,2.77805556 C51.0389091,4.08083333 51.8744904,5.96520833 51.9008845,8.31625 C51.9220692,10.2138194 51.934919,12.1110417 51.9411702,14.0086111 C51.9477687,15.9065278 51.9477687,17.7992361 51.9439485,19.7211111 C51.9408229,21.6436806 51.9335298,23.5797917 51.9251948,25.4794444 C51.9168599,27.3794444 44.0458648,29.8915972 38.2558352,32.2429861 C35.6976924,33.281875 33.4677392,34.2975 32.67418,35.1613889 C30.3449017,37.6957639 30.3410815,37.9110417 27.4561382,38.156875 L27.4561382,38.156875 Z" id="Fill-9" fill="#000000"></path>
                <path d="M87.9212446,49.1015625 C87.863247,44.9807292 87.8049022,43.7800347 87.7469047,42.8015625 C87.6889071,41.8237847 87.6309096,39.1390625 87.5729121,38.1487847 C87.5149145,37.1588542 86.0691436,34.8473958 94.303752,31.6321181 C102.53836,28.4171875 106.290141,25.5692708 106.232491,22.9758681 C106.174841,20.3824653 106.11719,17.7907986 106.05954,15.2328125 C106.00189,12.6748264 105.94424,10.1175347 105.886589,7.56024306 C105.810533,7.56024306 105.734476,7.56024306 105.658419,7.56024306 C105.620565,10.1241319 105.58271,12.6873264 105.544855,15.2508681 C105.507001,17.8147569 105.469146,20.4119792 105.431291,23.0092014 C105.393437,25.6064236 101.385355,28.4696181 93.0816362,31.6842014 C84.7782643,34.8991319 86.2354958,37.1755208 86.1972938,38.1647569 C86.1594392,39.1539931 86.1215845,41.8411458 86.0833825,42.8126736 C86.0455278,43.7838542 86.0076732,45.0001736 85.9694712,49.1015625 L87.9212446,49.1015625 Z M97.4307569,0.791493056 L103.175986,0.791493056 L108.85002,0.791493056 L114.57719,0.791493056 C114.641092,3.29496528 114.704646,5.79739583 114.768548,8.29947917 C114.832102,10.8015625 114.896003,13.3032986 114.959557,15.8043403 C115.023459,18.3060764 115.087013,20.8480903 115.150567,23.3779514 C115.214469,25.9078125 110.409008,28.7762153 102.561629,31.8973958 C94.7142495,35.0185764 96.4628579,37.1904514 96.5264121,38.1536458 C96.5899663,39.1164931 96.6538677,41.7387153 96.7177692,42.7220486 C96.7813234,43.7050347 96.8448776,44.5696181 96.9087791,48.4001736 C96.9726805,52.2307292 97.0362347,56.6654514 97.1001362,59.1692708 C97.1636904,61.6727431 97.2275919,64.1769097 97.2911461,66.6821181 C97.3550475,69.1873264 97.418949,71.6928819 97.4828505,74.1998264 L92.9500131,74.1998264 L88.3074318,74.1998264 L88.3074318,66.8348958 L88.3074318,59.4050347 L85.745816,59.4050347 L85.745816,66.7460069 L85.745816,74.1776042 L81.0973308,74.1776042 L76.5332372,74.1776042 C76.5964441,71.6762153 76.6593037,69.1755208 76.7225106,66.6751736 C76.7853702,64.1748264 76.8485771,61.6755208 76.9114367,59.1762153 C76.9742963,56.6769097 77.0375032,52.2612847 77.1003628,48.4289931 C77.1632224,44.5963542 77.2264293,43.7102431 77.2892889,42.7328125 C77.3521485,41.7557292 77.4153554,39.1289931 77.478215,38.1664931 C77.5410746,37.2036458 75.8400451,35.0605903 83.780151,31.9421875 C91.7199096,28.8237847 96.7993825,25.9435764 96.8625894,23.4126736 C96.9257963,20.8817708 96.9886559,18.3362847 97.0518628,15.8324653 C97.1150697,13.3282986 97.1782766,10.8227431 97.2411362,8.31614583 C97.3046904,5.80954861 97.36755,3.30121528 97.4307569,0.791493056 L97.4307569,0.791493056 Z" id="Fill-11" fill="#000000"></path>
                <path d="M117.647483,0.800208333 L122.225468,0.800208333 L126.859367,0.800208333 L126.859367,8.34986111 L126.859367,15.8946528 L126.859367,23.5078472 C126.859367,26.0491667 121.345433,28.9797222 113.561956,32.1033333 C105.778131,35.2265972 107.852845,37.2602778 107.852845,38.2307639 L107.852845,42.8127083 L107.852845,48.8182639 L107.852845,59.4724306 L107.852845,67.0186111 C108.668631,67.1446528 109.28264,67.2394444 110.047027,67.3571528 L110.047027,74.1890972 L104.379244,74.1890972 L98.6409606,74.1890972 L98.6409606,66.6936111 L98.6409606,59.1998611 L98.6409606,48.4703472 L98.6409606,42.7436111 L98.6409606,38.1772917 C98.6409606,37.2147917 96.8162956,35.0932639 104.669232,31.9759028 C112.522862,28.8581944 117.647483,25.9689583 117.647483,23.4370139 L117.647483,15.8522917 L117.647483,8.33076389 L117.647483,0.800208333 Z" id="Fill-13" fill="#000000"></path>
                <path d="M130.427223,0.800208333 L135.005208,0.800208333 L139.639107,0.800208333 L139.639107,8.34986111 L139.639107,15.8946528 L139.639107,23.5078472 C139.639107,26.0491667 134.125173,28.9800694 126.341348,32.1033333 C118.55787,35.2265972 120.632585,37.2602778 120.632585,38.2307639 L120.632585,42.8127083 L120.632585,48.8182639 L120.632585,59.4724306 L120.632585,67.0186111 C121.446981,67.1446528 122.061686,67.2390972 122.826767,67.3571528 L122.826767,74.1890972 L117.158636,74.1890972 L111.4207,74.1890972 L111.4207,66.6936111 L111.4207,59.1998611 L111.4207,48.47 L111.4207,42.7436111 L111.4207,38.1772917 C111.4207,37.2147917 109.596035,35.0929167 117.448971,31.9759028 C125.302602,28.8581944 130.427223,25.9689583 130.427223,23.4370139 L130.427223,15.8522917 L130.427223,8.33076389 L130.427223,0.800208333 Z" id="Fill-15" fill="#000000"></path>
                <path d="M6.94581281e-05,32.2528125 L6.94581281e-05,15.8285069 L6.94581281e-05,8.32190972 L6.94581281e-05,0.814965278 L5.71195862,0.814965278 L14.6564291,0.814965278 L14.6564291,7.64100694 C14.030264,7.74378472 13.3752739,7.85142361 12.604636,7.97815972 L12.604636,13.3010764 L12.604636,18.6319792 C12.604636,20.4236458 12.4747493,25.2184375 12.4747493,27.0128819" id="Fill-17" fill="#000000"></path>
                <path d="M138.806096,27.7901389 L138.806096,42.8234722 L138.806096,48.829375 L138.806096,59.4831944 L138.806096,67.0297222 C139.620492,67.1554167 140.234849,67.2502083 140.999931,67.3679167 L140.999931,74.1998611 L135.332147,74.1998611 L129.594211,74.1998611 L129.594211,66.704375 L129.594211,59.210625 L129.594211,48.4807639 L129.594211,42.7547222 L129.594211,32.8109722" id="Fill-19" fill="#000000"></path>
            </g>
        </g>
    </g>
</svg>