<?xml version="1.0" encoding="UTF-8"?>
<svg width="27px" height="27px" viewBox="0 0 27 27" version="1.1" xmlns="http://www.w3.org/2000/svg" xmlns:xlink="http://www.w3.org/1999/xlink">
    <title>l</title>
    <g id="Symbols" stroke="none" stroke-width="1" fill="none" fill-rule="evenodd">
        <g id="Footer" transform="translate(-708.000000, -53.000000)" fill="#575865" fill-rule="nonzero">
            <path d="M732.374942,79.8749955 C732.882753,79.8749955 733.322206,79.6894488 733.693298,79.3183562 C734.064391,78.9472637 734.249937,78.5078116 734.249937,78 L734.249937,78 L734.249937,55.5000536 C734.249937,54.9922421 734.064391,54.55279 733.693298,54.1816974 C733.322206,53.8106048 732.882753,53.6250581 732.374942,53.6250581 L732.374942,53.6250581 L709.874996,53.6250581 C709.367184,53.6250581 708.927732,53.8106048 708.556639,54.1816974 C708.185547,54.55279 708,54.9922421 708,55.5000536 L708,55.5000536 L708,78 C708,78.5078116 708.185547,78.9472637 708.556639,79.3183562 C708.927732,79.6894488 709.367184,79.8749955 709.874996,79.8749955 L709.874996,79.8749955 L732.374942,79.8749955 Z M713.976548,61.8867572 C713.351549,61.8867572 712.824207,61.6621486 712.394521,61.2129306 C711.964835,60.7637127 711.749991,60.2363702 711.749991,59.6309032 C711.749991,59.0254362 711.964835,58.4980937 712.394521,58.0488757 C712.824207,57.5996577 713.351549,57.3750492 713.976548,57.3750492 C714.601547,57.3750492 715.138655,57.5996577 715.587873,58.0488757 C716.037091,58.4980937 716.261699,59.0254362 716.261699,59.6309032 C716.261699,60.2363702 716.037091,60.7637127 715.587873,61.2129306 C715.138655,61.6621486 714.601547,61.8867572 713.976548,61.8867572 Z M722.238247,76.1250045 L718.371069,76.1250045 L718.371069,63.5859719 L722.12106,63.5859719 L722.12106,65.2851866 L722.179654,65.2851866 C722.453091,64.7383132 722.882777,64.2890952 723.468713,63.9375335 C724.171836,63.5078474 724.972616,63.2930038 725.871051,63.2930038 C727.667922,63.2930038 728.93745,63.859409 729.679636,64.9922185 C730.226509,65.8906536 730.499946,67.316432 730.499946,69.2695521 L730.499946,69.2695521 L730.499946,76.1250045 L726.632768,76.1250045 L726.632768,70.031269 C726.632768,69.0156467 726.535112,68.2734607 726.3398,67.8047118 C726.066363,67.0625258 725.480427,66.6914332 724.581992,66.6914332 C723.683557,66.6914332 723.039027,67.023464 722.648403,67.6875246 C722.374965,68.1953362 722.238247,68.9375213 722.238247,69.9140818 L722.238247,69.9140818 L722.238247,76.1250045 Z M715.968731,76.1250045 L712.042959,76.1250045 L712.042959,63.5859719 L715.968731,63.5859719 L715.968731,76.1250045 Z" id="l"></path>
        </g>
    </g>
</svg>