<svg id="Layer_1" data-name="Layer 1" xmlns="http://www.w3.org/2000/svg" viewBox="0 0 200 200"><rect width="200" height="200"/><g id="_8xtVtJ" data-name="8xtVtJ"><path d="M165.1,88.53q2.93-.81,5.62-1.59V77.27c-.34.22-.71.44-1.11.65l0,0a56.93,56.93,0,0,1-7.08,3.16l-.11,0c-7.17,2.72-16.95,5.57-26.9,8.44-19.39,5.61-13.62,9.26-13.62,11v51.63a28.68,28.68,0,0,0,.08,3.07c.47,4.32,2.09,7.62,5,10.05s7.24,4,13,4.74a67.78,67.78,0,0,0,20.41-.32,24.16,24.16,0,0,0,10.3-3.91V87.78l-2.53.71c-22,6-17.58,10.24-17.58,12.1v55.09l-3-.12v-55C147.66,98.73,143.18,94.54,165.1,88.53Z" style="fill:#fff"/><path d="M81.47,29.46h31.39v13l-5.59.64V73.66c0,3.42-5.09,7.07-21.09,11.34S55.52,93.92,55.52,96.8c1.81.15,3.49.27,5.56.43v18.58l-5.51.42V155.6l5.59.6v13H29.72V100.59c0-1.84-4.73-5.94,16.77-11.88,44.22-12.22,35-5.14,35-16.24v-43Z" style="fill:#fff"/><path d="M104,100.58c11.78.85,14.69,6.29,14.8,8.8.08,1.8.13,3.63.15,10.88s0,15.55,0,20.26-.07,9.4-.13,14.11a12.47,12.47,0,0,1-6.38,10.82c-4.07,2.52-9.95,3.89-17.28,3.92-5,0-10,0-15,0H64.87V100.63c0-1.83-5.07-5.85,16.28-11.78s35.47-11.45,35.47-16.27v-43c1.26-.09,2.42-.23,3.58-.23l13.55,0c4.51,0,9,0,13.54,0,7.11.05,12.9,1.43,16.93,3.91s6.3,6.07,6.38,10.54c.06,3.62.09,7.23.11,10.84s0,7.22,0,10.88,0,7.34-.06,11-21.45,8.4-37.22,12.88c-7,2-13,3.91-15.19,5.55C111.9,99.7,111.89,100.11,104,100.58ZM142,43.13V73.72c0,3.41-5.26,7.06-21.22,11.32S90.21,93.92,90.21,96.8l2.94.08c0-2.85,14.24-7.5,30.3-11.78s21.45-7.95,21.45-11.38V43ZM90.22,104.38v51.16l2.92.16V104.38Z" style="fill:#fff"/></g><g id="_8xtVtJ-2" data-name="8xtVtJ"><path d="M29.28,89.34V29.48H69.19v13l-5.59.64V63.4c0,3.41-.35,12.54-.35,16Z" style="fill:#fff"/></g></svg>